<?xml version="1.0" encoding="utf-8"?>
<!-- Generator: Adobe Illustrator 17.0.0, SVG Export Plug-In . SVG Version: 6.00 Build 0)  -->
<!DOCTYPE svg PUBLIC "-//W3C//DTD SVG 1.1//EN" "http://www.w3.org/Graphics/SVG/1.1/DTD/svg11.dtd">
<svg version="1.1" id="Layer_1" xmlns="http://www.w3.org/2000/svg" xmlns:xlink="http://www.w3.org/1999/xlink" x="0px" y="0px"
	 width="183.6px" height="39.6px" viewBox="0 0 183.6 39.6" enable-background="new 0 0 183.6 39.6" xml:space="preserve">
<g>
	<path fill="#007DC5" d="M58.742,30.259l-4.313-6.441H50.95v6.441h-4.428V10.132h9.201c4.744,0,7.591,2.502,7.591,6.642v0.057
		c0,3.249-1.754,5.29-4.313,6.239l4.917,7.188H58.742z M58.828,17.004c0-1.898-1.322-2.875-3.479-2.875H50.95v5.779h4.485
		c2.156,0,3.393-1.15,3.393-2.846V17.004z"/>
	<path fill="#007DC5" d="M77.088,30.603c-6.211,0-10.667-4.629-10.667-10.351v-0.057c0-5.721,4.514-10.408,10.724-10.408
		c6.21,0,10.667,4.629,10.667,10.351v0.057C87.812,25.917,83.298,30.603,77.088,30.603z M83.183,20.195
		c0-3.45-2.531-6.325-6.095-6.325c-3.565,0-6.038,2.818-6.038,6.268v0.057c0,3.45,2.53,6.326,6.095,6.326
		c3.565,0,6.038-2.818,6.038-6.268V20.195z"/>
	<path fill="#007DC5" d="M104.749,30.259L98.51,21.69l-2.329,2.415v6.153h-4.428V10.132h4.428v8.798l8.166-8.798h5.347l-8.193,8.539
		l8.568,11.588H104.749z"/>
	<path fill="#007DC5" d="M112.946,30.259V10.132h4.428v20.127H112.946z"/>
	<path fill="#007DC5" d="M131.981,30.259h-9.574V10.132h9.344c4.112,0,6.641,2.042,6.641,5.204v0.058
		c0,2.271-1.207,3.536-2.645,4.341c2.329,0.891,3.767,2.242,3.767,4.945v0.057C139.513,28.418,136.523,30.259,131.981,30.259z
		 M133.993,16.084c0-1.323-1.035-2.07-2.904-2.07h-4.37v4.255h4.082c1.956,0,3.192-0.633,3.192-2.128V16.084z M135.114,24.134
		c0-1.351-1.006-2.185-3.277-2.185h-5.117v4.428h5.261c1.955,0,3.133-0.69,3.133-2.185V24.134z"/>
	<path fill="#007DC5" d="M151.562,30.575c-5.406,0-8.712-3.02-8.712-8.942V10.132h4.428v11.386c0,3.277,1.639,4.974,4.342,4.974
		c2.702,0,4.341-1.639,4.341-4.83v-11.53h4.429v11.357C160.389,27.584,156.967,30.575,151.562,30.575z"/>
	<path fill="#007DC5" d="M164.905,30.259V10.132h4.428v16.101h10.034v4.026H164.905z"/>
</g>
<g>
	<path fill="#0054A6" d="M21.751,8.963c2.219,0,3.975,0.498,5.219,1.48c1.278,1.01,1.926,2.446,1.926,4.27
		c0,2.357-0.914,4.307-2.715,5.798c-1.19,0.971-2.612,1.628-4.239,1.96l7.295,11.125c4.262-2.986,7.052-7.93,7.052-13.529
		c0-9.119-7.392-16.511-16.511-16.511S3.269,10.948,3.269,20.066c0,5.648,2.838,10.632,7.164,13.609L15.52,8.963H21.751z"/>
	<path fill="#0054A6" d="M19.664,19.952c1.86,0,3.382-0.471,4.523-1.399c1.126-0.916,1.674-2.077,1.674-3.548
		c0-1.054-0.357-1.84-1.093-2.403c-0.765-0.586-1.893-0.883-3.355-0.883h-3.421l-4.853,23.464c2.032,0.894,4.277,1.394,6.64,1.394
		c2.402,0,4.681-0.517,6.74-1.439l-9.685-15.185H19.664z"/>
</g>
</svg>
